<svg xmlns="http://www.w3.org/2000/svg" viewBox="0 0 512 512">
  <rect width="512" height="512" rx="112" fill="#1c1917"/>
  <path d="M256 128c-70.7 0-128 57.3-128 128 0 52 30.9 96.8 75.3 117.1-3.2 2.9-5.3 7.1-5.3 11.9 0 9.2 7.5 16.7 16.7 16.7h82.6c9.2 0 16.7-7.5 16.7-16.7 0-4.8-2.1-9-5.3-11.9C353.1 352.8 384 308 384 256c0-70.7-57.3-128-128-128z" fill="#fafaf9"/>
  <circle cx="216" cy="240" r="14" fill="#1c1917"/>
  <circle cx="296" cy="240" r="14" fill="#1c1917"/>
  <path d="M212 288c12 16 28 24 44 24s32-8 44-24" stroke="#1c1917" stroke-width="12" stroke-linecap="round" fill="none"/>
</svg>
