<svg xmlns="http://www.w3.org/2000/svg" viewBox="0 0 512 512">
  <rect width="512" height="512" fill="#1c1917"/>
  <g transform="translate(0 0)">
    <path d="M256 176c-48 0-88 40-88 88 0 35 21 65 51 78-2 2-3 5-3 8 0 6 5 11 11 11h58c6 0 11-5 11-11 0-3-1-6-3-8 30-13 51-43 51-78 0-48-40-88-88-88z" fill="#fafaf9"/>
    <circle cx="228" cy="252" r="10" fill="#1c1917"/>
    <circle cx="284" cy="252" r="10" fill="#1c1917"/>
    <path d="M226 286c9 11 19 17 30 17s21-6 30-17" stroke="#1c1917" stroke-width="8" stroke-linecap="round" fill="none"/>
  </g>
</svg>
